<svg width="209" height="60" viewBox="0 0 209 60" fill="none" xmlns="http://www.w3.org/2000/svg">
<path fill-rule="evenodd" clip-rule="evenodd" d="M62.1903 14.5076H65.4426V29.0817H72.7423V32.1946H62.1903L62.1903 14.5076ZM82.996 32.1946C81.3563 32.1946 79.8689 31.8045 78.5337 31.0242C77.1986 30.2438 76.1484 29.1758 75.3832 27.8202C74.6181 26.4645 74.2355 24.9748 74.2355 23.3511C74.2355 21.7274 74.6181 20.2377 75.3832 18.882C76.1484 17.5263 77.1986 16.4584 78.5337 15.678C79.8689 14.8977 81.3563 14.5076 82.996 14.5076C84.6356 14.5076 86.123 14.8977 87.4582 15.678C88.7933 16.4584 89.8435 17.5263 90.6087 18.882C91.3739 20.2377 91.7564 21.7274 91.7564 23.3511C91.7564 24.9748 91.3739 26.4645 90.6087 27.8202C89.8435 29.1758 88.7933 30.2438 87.4582 31.0242C86.123 31.8045 84.6356 32.1946 82.996 32.1946ZM83.0353 29.3471C84.0953 29.3471 85.067 29.0958 85.9503 28.5932C86.8337 28.0906 87.5283 27.3853 88.0342 26.4774C88.5402 25.5694 88.7931 24.5318 88.7931 23.3645C88.7931 22.1971 88.5402 21.1595 88.0342 20.2515C87.5283 19.3436 86.8337 18.6383 85.9503 18.1357C85.067 17.6331 84.0953 17.3818 83.0353 17.3818C81.9753 17.3818 81.0076 17.6331 80.1323 18.1357C79.257 18.6383 78.5664 19.3436 78.0604 20.2515C77.5545 21.1595 77.3016 22.1971 77.3016 23.3645C77.3016 24.5318 77.5545 25.5694 78.0604 26.4774C78.5664 27.3853 79.257 28.0906 80.1323 28.5932C81.0076 29.0958 81.9753 29.3471 83.0353 29.3471ZM99.5169 14.5076H103.245L110.154 32.1946H106.57L104.688 27.6339H97.8889L96.1368 32.1946H92.5529L99.5169 14.5076ZM103.583 24.6775L101.612 18.266H101.425L99.203 24.6775H103.583ZM112.124 14.5076H118.041C119.867 14.5076 121.456 14.8778 122.809 15.6183C124.162 16.3587 125.205 17.3954 125.939 18.7282C126.672 20.0611 127.039 21.5996 127.039 23.3438C127.039 25.088 126.672 26.6265 125.939 27.9593C125.205 29.2922 124.162 30.3288 122.809 31.0693C121.456 31.8098 119.867 32.18 118.041 32.18H112.124V14.5076ZM117.843 29.011C119.706 29.011 121.127 28.5124 122.107 27.5153C123.087 26.5182 123.577 25.1523 123.577 23.4174C123.577 21.6826 123.087 20.3167 122.107 19.3196C121.127 18.3225 119.706 17.8239 117.843 17.8239H115.41V29.011H117.843ZM134.625 32.1947C133.314 32.1947 132.111 31.7927 131.018 30.9887C129.925 30.1848 129.175 29.0576 128.769 27.6074L130.667 26.8271C130.932 27.8359 131.424 28.6635 132.142 29.3099C132.861 29.9562 133.704 30.2793 134.672 30.2793C135.64 30.2793 136.46 30.0153 137.132 29.4872C137.803 28.9591 138.139 28.2379 138.139 27.3236C138.139 26.5354 137.854 25.8852 137.284 25.3728C136.714 24.8605 135.781 24.3837 134.485 23.9423L133.431 23.5639C132.244 23.1383 131.276 22.5787 130.526 21.8851C129.777 21.1915 129.402 20.2299 129.402 19.0003C129.402 18.1963 129.62 17.4515 130.058 16.7658C130.495 16.08 131.104 15.5322 131.885 15.1224C132.666 14.7125 133.54 14.5076 134.508 14.5076C135.476 14.5076 136.32 14.6889 137.038 15.0514C137.756 15.414 138.33 15.8554 138.76 16.3756C139.189 16.8958 139.49 17.4081 139.661 17.9126L137.788 18.7165C137.631 18.1333 137.276 17.6052 136.722 17.1323C136.167 16.6594 135.437 16.4229 134.532 16.4229C133.673 16.4229 132.939 16.6672 132.33 17.1559C131.721 17.6446 131.416 18.2594 131.416 19.0003C131.416 19.6624 131.674 20.2023 132.189 20.62C132.705 21.0378 133.485 21.4279 134.532 21.7905L135.633 22.1688C137.054 22.689 138.162 23.3393 138.959 24.1196C139.755 24.8999 140.153 25.96 140.153 27.3C140.153 28.3877 139.876 29.302 139.322 30.0429C138.767 30.7838 138.069 31.3276 137.225 31.6744C136.382 32.0213 135.515 32.1947 134.625 32.1947ZM143.443 14.5076H145.501V22.1741H154.566V14.5076H156.624V32.2147H154.566V24.1525H145.501V32.2147H143.443V14.5076ZM165.187 14.5076H167.536L174.192 32.1946H171.916L169.961 27.3282H162.942L160.968 32.1946H158.555L165.187 14.5076ZM169.473 25.6791L167.184 19.4046L166.486 17.532H166.389L165.715 19.4046L163.426 25.6791H169.473ZM176.295 14.5076H182.233C183.198 14.5076 184.098 14.7305 184.932 15.1764C185.766 15.6222 186.433 16.2456 186.932 17.0464C187.431 17.8473 187.68 18.7514 187.68 19.7586C187.68 20.5843 187.496 21.3521 187.128 22.0622C186.76 22.7722 186.253 23.3667 185.607 23.8455C184.961 24.3244 184.245 24.6464 183.46 24.8115L183.411 24.8858L188.367 32.1432V32.2423H185.913L181.129 25.0097H178.356V32.2423H176.295V14.5076ZM182.529 23.3512C183.136 23.3512 183.706 23.1959 184.239 22.8852C184.773 22.5746 185.199 22.1407 185.519 21.5834C185.839 21.0261 185.999 20.4003 185.999 19.706C185.999 19.103 185.86 18.5274 185.581 17.9793C185.302 17.4311 184.912 16.9835 184.412 16.6363C183.911 16.2891 183.333 16.1156 182.677 16.1156H178.763V23.3512H182.529ZM190.531 14.5076H200.662V16.5085H192.587V22.363H199.879V24.3392H192.587V30.1937H200.662V32.1947H190.531V14.5076Z" fill="#051C57"/>
<path fill-rule="evenodd" clip-rule="evenodd" d="M62.1899 38.8271H63.3778L66.2358 43.4925H66.2894L66.2358 42.2568V38.8271H67.2272V45.2387H66.1823L63.1813 40.3315H63.1277L63.1813 41.5673V45.2387H62.1899V38.8271ZM81.6819 38.8271H85.4051V39.7853H82.6405V41.5583H85.1312V42.5075H82.6405V44.2806H85.4051V45.2387H81.6819V38.8271ZM100.78 39.7853H98.9839V38.8271H103.583V39.7853H101.787V45.2387H100.78V39.7853ZM116.943 38.8271H118.031L118.997 42.9553L119.101 43.5105H119.154L119.293 42.9553L120.538 38.8271H121.512L122.696 42.9553L122.835 43.5015H122.888L122.992 42.9553L123.958 38.8271H125.046L123.401 45.2387H122.365L121.182 41.0121L121.051 40.439H120.999L120.851 41.0121L119.615 45.2387H118.605L116.943 38.8271ZM141.691 45.4598C141.077 45.4598 140.52 45.3135 140.018 45.0209C139.516 44.7283 139.122 44.3278 138.836 43.8194C138.549 43.311 138.406 42.7524 138.406 42.1435C138.406 41.5346 138.549 40.9774 138.836 40.472C139.122 39.9666 139.516 39.5661 140.018 39.2705C140.52 38.9749 141.077 38.8271 141.691 38.8271C142.305 38.8271 142.862 38.9749 143.361 39.2705C143.859 39.5661 144.253 39.9666 144.543 40.472C144.832 40.9774 144.977 41.5346 144.977 42.1435C144.977 42.7524 144.833 43.311 144.547 43.8194C144.261 44.3278 143.867 44.7283 143.365 45.0209C142.863 45.3135 142.305 45.4598 141.691 45.4598ZM141.805 44.3543C142.228 44.3543 142.615 44.2557 142.966 44.0587C143.317 43.8616 143.594 43.5877 143.797 43.237C143.999 42.8864 144.1 42.485 144.1 42.0329C144.1 41.5807 143.999 41.1793 143.797 40.8287C143.594 40.478 143.317 40.2041 142.966 40.007C142.615 39.81 142.228 39.7114 141.805 39.7114C141.382 39.7114 140.995 39.81 140.644 40.007C140.293 40.2041 140.014 40.478 139.809 40.8287C139.604 41.1793 139.501 41.5807 139.501 42.0329C139.501 42.485 139.604 42.8864 139.809 43.237C140.014 43.5877 140.293 43.8616 140.644 44.0587C140.995 44.2557 141.382 44.3543 141.805 44.3543ZM158.993 38.8271H161.244C161.625 38.8271 161.973 38.9107 162.289 39.0779C162.604 39.245 162.853 39.4779 163.035 39.7763C163.216 40.0748 163.307 40.4121 163.307 40.7882C163.307 41.2181 163.168 41.6001 162.892 41.9344C162.615 42.2687 162.268 42.4926 161.851 42.606L161.842 42.6508L163.593 45.185V45.2387H162.432L160.744 42.7314H159.994V45.2387H158.993V38.8271ZM161.256 41.9224C161.54 41.9224 161.781 41.8289 161.98 41.6419C162.179 41.4549 162.279 41.2153 162.279 40.9231C162.279 40.7595 162.239 40.6017 162.159 40.4498C162.08 40.2979 161.966 40.1737 161.818 40.0772C161.671 39.9808 161.494 39.9326 161.29 39.9326H160.088V41.9224H161.256ZM177.39 38.8271H178.38V41.8717H178.433L180.996 38.8271H182.224V38.8809L179.909 41.5852L182.427 45.185V45.2387H181.217L179.237 42.3643L178.38 43.3672V45.2387H177.39V38.8271ZM198.048 45.4598C197.528 45.4598 197.061 45.3061 196.646 44.9987C196.231 44.6913 195.945 44.2598 195.787 43.7041L196.716 43.3228C196.809 43.6716 196.974 43.9568 197.211 44.1785C197.447 44.4002 197.732 44.511 198.065 44.511C198.375 44.511 198.637 44.4297 198.854 44.2672C199.07 44.1046 199.178 43.8814 199.178 43.5977C199.178 43.3376 199.083 43.1233 198.893 42.9548C198.703 42.7863 198.372 42.6164 197.899 42.445L197.504 42.3031C197.084 42.1553 196.731 41.9425 196.444 41.6646C196.158 41.3868 196.015 41.0203 196.015 40.5651C196.015 40.2518 196.1 39.9621 196.269 39.6961C196.439 39.4301 196.674 39.2188 196.974 39.0621C197.275 38.9055 197.615 38.8271 197.995 38.8271C198.544 38.8271 198.982 38.9616 199.309 39.2306C199.636 39.4996 199.855 39.8025 199.966 40.1395L199.081 40.5208C199.017 40.3198 198.894 40.1424 198.713 39.9887C198.532 39.835 198.299 39.7582 198.013 39.7582C197.726 39.7582 197.485 39.8321 197.29 39.9799C197.094 40.1277 196.996 40.3168 196.996 40.5474C196.996 40.7661 197.084 40.9464 197.259 41.0883C197.434 41.2302 197.709 41.3661 198.083 41.4962L198.477 41.6292C199.014 41.8183 199.43 42.0651 199.725 42.3696C200.02 42.674 200.168 43.0804 200.168 43.5888C200.168 44.0026 200.062 44.3499 199.852 44.6307C199.642 44.9115 199.375 45.1199 199.051 45.2558C198.727 45.3918 198.392 45.4598 198.048 45.4598Z" fill="#051C57"/>
<rect x="7.875" y="7.875" width="43.8024" height="44.2176" rx="6.58441" fill="url(#paint0_linear_102_10886)"/>
<g filter="url(#filter0_d_102_10886)">
<path fill-rule="evenodd" clip-rule="evenodd" d="M20.5776 23.5291C22.364 22.8918 23.6438 21.172 23.6438 19.1504C23.6438 16.5862 21.5847 14.5076 19.0446 14.5076C16.5045 14.5076 14.4453 16.5862 14.4453 19.1504C14.4453 21.1719 15.7251 22.8917 17.5115 23.5291V36.4384C15.7251 37.0758 14.4453 38.7955 14.4453 40.817C14.4453 43.3812 16.5045 45.4599 19.0446 45.4599C21.0471 45.4599 22.7508 44.1679 23.3821 42.3646H36.1701C36.8015 44.1679 38.5051 45.4599 40.5077 45.4599C43.0478 45.4599 45.107 43.3812 45.107 40.817C45.107 38.2529 43.0478 36.1742 40.5077 36.1742C38.5052 36.1742 36.8016 37.4661 36.1702 39.2693H23.3821C22.9202 37.9502 21.8844 36.9046 20.5776 36.4384V23.5291Z" fill="url(#paint1_linear_102_10886)"/>
</g>
<defs>
<filter id="filter0_d_102_10886" x="13.6414" y="14.5076" width="32.2695" height="32.5603" filterUnits="userSpaceOnUse" color-interpolation-filters="sRGB">
<feFlood flood-opacity="0" result="BackgroundImageFix"/>
<feColorMatrix in="SourceAlpha" type="matrix" values="0 0 0 0 0 0 0 0 0 0 0 0 0 0 0 0 0 0 127 0" result="hardAlpha"/>
<feOffset dy="0.803957"/>
<feGaussianBlur stdDeviation="0.401979"/>
<feColorMatrix type="matrix" values="0 0 0 0 0 0 0 0 0 0 0 0 0 0 0 0 0 0 0.118999 0"/>
<feBlend mode="normal" in2="BackgroundImageFix" result="effect1_dropShadow_102_10886"/>
<feBlend mode="normal" in="SourceGraphic" in2="effect1_dropShadow_102_10886" result="shape"/>
</filter>
<linearGradient id="paint0_linear_102_10886" x1="31.1053" y1="-4.62641" x2="-3.14917" y2="26.7094" gradientUnits="userSpaceOnUse">
<stop stop-color="#369EFD"/>
<stop offset="1" stop-color="#405DFE"/>
</linearGradient>
<linearGradient id="paint1_linear_102_10886" x1="28.1261" y1="5.71635" x2="2.40759" y2="31.8468" gradientUnits="userSpaceOnUse">
<stop stop-color="#FAF8F7"/>
<stop offset="1" stop-color="#F6F6F9"/>
</linearGradient>
</defs>
</svg>
